# Blender v2.82 (sub 7) OBJ File: ''
# www.blender.org
mtllib stump obj.mtl
o sawmill2_1_Mesh
v -0.066235 0.085880 -0.654932
v 1.514981 0.085880 -0.231246
v -0.099060 0.085880 -0.532426
v 1.482156 0.085880 -0.108741
v -0.097453 0.046689 -0.538422
v 1.483762 0.046689 -0.114737
v -0.092791 0.011333 -0.555823
v 1.488425 0.011333 -0.132137
v -0.085529 -0.016725 -0.582925
v 1.495687 -0.016725 -0.159240
v -0.076378 -0.034739 -0.617075
v 1.504837 -0.034739 -0.193390
v -0.066235 -0.040946 -0.654932
v 1.514981 -0.040947 -0.231246
v -0.056091 -0.034739 -0.692788
v 1.525124 -0.034739 -0.269102
v -0.046940 -0.016725 -0.726938
v 1.534275 -0.016725 -0.303253
v -0.039679 0.011333 -0.754040
v 1.541537 0.011333 -0.330355
v -0.035016 0.046689 -0.771441
v 1.546199 0.046689 -0.347756
v -0.033409 0.085880 -0.777437
v 1.547806 0.085880 -0.353751
v -0.303423 0.085880 -0.391021
v 1.152929 0.085880 0.606803
v -0.375108 0.085880 -0.286396
v 1.081244 0.085880 0.711428
v -0.361417 0.011333 -0.306378
v 1.094935 0.011333 0.691447
v -0.325575 -0.034739 -0.358690
v 1.130777 -0.034739 0.639134
v -0.281272 -0.034739 -0.423352
v 1.175080 -0.034739 0.574472
v -0.245430 0.011333 -0.475664
v 1.210922 0.011333 0.522160
v -0.231739 0.085880 -0.495646
v 1.224613 0.085880 0.502178
v -0.245430 0.160427 -0.475664
v 1.210922 0.160427 0.522160
v -0.281272 0.206500 -0.423352
v 1.175080 0.206500 0.574472
v -0.325575 0.206500 -0.358690
v 1.130777 0.206500 0.639134
v -0.361417 0.160427 -0.306378
v 1.094935 0.160427 0.691447
vt 0.364199 0.484107
vt 0.364978 0.488961
vt 0.349068 0.488961
vt 0.369955 0.691682
vt 0.364978 0.691682
vt 0.364199 0.696535
vt 0.349068 0.691682
vt 0.361939 0.479729
vt 0.374933 0.691682
vt 0.369955 0.488961
vt 0.361939 0.700913
vt 0.358419 0.476255
vt 0.379910 0.691682
vt 0.374933 0.488961
vt 0.358419 0.704388
vt 0.353984 0.474024
vt 0.384888 0.691682
vt 0.379910 0.488961
vt 0.353984 0.706619
vt 0.349068 0.473255
vt 0.389866 0.691682
vt 0.384888 0.488961
vt 0.349068 0.707387
vt 0.344152 0.474024
vt 0.394843 0.691682
vt 0.389866 0.488961
vt 0.344152 0.706619
vt 0.339717 0.476255
vt 0.399821 0.691682
vt 0.394843 0.488961
vt 0.339717 0.704388
vt 0.336197 0.479729
vt 0.404798 0.691682
vt 0.399821 0.488961
vt 0.336197 0.700913
vt 0.333937 0.484107
vt 0.409776 0.691682
vt 0.404798 0.488961
vt 0.333937 0.696535
vt 0.333158 0.488961
vt 0.333158 0.691682
vt 0.328181 0.691682
vt 0.328181 0.488961
vt 0.359844 0.741800
vt 0.356778 0.732484
vt 0.372833 0.732484
vt 0.357949 0.968182
vt 0.348026 0.968182
vt 0.348026 0.747558
vt 0.359844 0.973939
vt 0.372833 0.983256
vt 0.356778 0.983256
vt 0.367872 0.747558
vt 0.367872 0.968182
vt 0.357949 0.747558
vt 0.377794 0.747558
vt 0.377794 0.968182
vt 0.385822 0.741800
vt 0.387717 0.968182
vt 0.385822 0.973939
vt 0.388888 0.732484
vt 0.397640 0.968182
vt 0.387717 0.747558
vt 0.388888 0.983256
vt 0.385822 0.723168
vt 0.407562 0.968182
vt 0.397640 0.747558
vt 0.385822 0.992572
vt 0.377794 0.717410
vt 0.417485 0.968182
vt 0.407562 0.747558
vt 0.377794 0.998330
vt 0.367872 0.717410
vt 0.427408 0.968182
vt 0.417485 0.747558
vt 0.367872 0.998330
vt 0.359844 0.723168
vt 0.338104 0.968182
vt 0.328181 0.968182
vt 0.328181 0.747558
vt 0.359844 0.992572
vt 0.338104 0.747558
vt 0.409776 0.488961
vt 0.427408 0.747558
vn -0.9659 -0.0000 -0.2588
vn -0.2500 -0.2585 0.9331
vn -0.2556 -0.1564 0.9540
vn 0.9659 0.0000 0.2588
vn -0.2171 -0.5443 0.8103
vn -0.2416 -0.3587 0.9016
vn -0.1630 -0.7769 0.6082
vn -0.2011 -0.6296 0.7504
vn -0.0928 -0.9334 0.3465
vn -0.1409 -0.8389 0.5258
vn -0.0136 -0.9986 0.0509
vn -0.0669 -0.9660 0.2497
vn 0.0669 -0.9660 -0.2497
vn 0.0136 -0.9986 -0.0509
vn 0.1409 -0.8389 -0.5258
vn 0.0928 -0.9334 -0.3465
vn 0.2011 -0.6296 -0.7504
vn 0.1630 -0.7769 -0.6082
vn 0.2416 -0.3587 -0.9016
vn 0.2171 -0.5443 -0.8103
vn 0.2556 -0.1564 -0.9540
vn 0.2500 -0.2585 -0.9331
vn 0.0000 1.0000 0.0000
vn -0.8249 0.0000 -0.5652
vn -0.4904 -0.4972 0.7157
vn -0.5619 0.1077 0.8201
vn -0.5619 -0.1077 0.8201
vn 0.8249 0.0000 0.5652
vn -0.2315 -0.9123 0.3379
vn -0.4188 -0.6715 0.6113
vn 0.1158 -0.9788 -0.1690
vn -0.1158 -0.9788 0.1690
vn 0.4188 -0.6715 -0.6113
vn 0.2315 -0.9123 -0.3379
vn 0.5619 -0.1077 -0.8201
vn 0.4904 -0.4972 -0.7157
vn 0.4904 0.4972 -0.7157
vn 0.5619 0.1077 -0.8201
vn 0.2315 0.9123 -0.3379
vn 0.4188 0.6715 -0.6113
vn -0.1158 0.9788 0.1690
vn 0.1158 0.9788 -0.1690
vn -0.4188 0.6715 0.6113
vn -0.2315 0.9123 0.3379
vn -0.4904 0.4972 0.7157
usemtl Material.001
s 1
f 5/1/1 3/2/1 1/3/1
f 6/4/2 4/5/3 3/2/3
f 6/6/4 2/7/4 4/5/4
f 7/8/1 5/1/1 1/3/1
f 8/9/5 6/4/2 5/10/6
f 8/11/4 2/7/4 6/6/4
f 9/12/1 7/8/1 1/3/1
f 10/13/7 8/9/5 7/14/8
f 10/15/4 2/7/4 8/11/4
f 11/16/1 9/12/1 1/3/1
f 12/17/9 10/13/7 9/18/10
f 12/19/4 2/7/4 10/15/4
f 13/20/1 11/16/1 1/3/1
f 14/21/11 12/17/9 11/22/12
f 14/23/4 2/7/4 12/19/4
f 15/24/1 13/20/1 1/3/1
f 16/25/13 14/21/11 13/26/14
f 16/27/4 2/7/4 14/23/4
f 17/28/1 15/24/1 1/3/1
f 18/29/15 16/25/13 15/30/16
f 18/31/4 2/7/4 16/27/4
f 19/32/1 17/28/1 1/3/1
f 20/33/17 18/29/15 17/34/18
f 20/35/4 2/7/4 18/31/4
f 21/36/1 19/32/1 1/3/1
f 22/37/19 20/33/17 19/38/20
f 22/39/4 2/7/4 20/35/4
f 23/40/1 21/36/1 1/3/1
f 24/41/21 22/42/19 21/43/22
f 24/41/4 2/7/4 22/39/4
f 3/2/23 4/5/23 1/3/23
f 4/5/23 2/7/23 1/3/23
f 24/41/23 23/40/23 1/3/23
f 2/7/23 24/41/23 1/3/23
f 29/44/24 27/45/24 25/46/24
f 30/47/25 28/48/26 27/49/27
f 30/50/28 26/51/28 28/52/28
f 31/53/24 29/44/24 25/46/24
f 32/54/29 30/47/25 29/55/30
f 32/54/28 26/51/28 30/50/28
f 33/56/24 31/53/24 25/46/24
f 34/57/31 32/54/29 31/53/32
f 34/57/28 26/51/28 32/54/28
f 35/58/24 33/56/24 25/46/24
f 36/59/33 34/57/31 33/56/34
f 36/60/28 26/51/28 34/57/28
f 37/61/24 35/58/24 25/46/24
f 38/62/35 36/59/33 35/63/36
f 38/64/28 26/51/28 36/60/28
f 39/65/24 37/61/24 25/46/24
f 40/66/37 38/62/35 37/67/38
f 40/68/28 26/51/28 38/64/28
f 41/69/24 39/65/24 25/46/24
f 42/70/39 40/66/37 39/71/40
f 42/72/28 26/51/28 40/68/28
f 43/73/24 41/69/24 25/46/24
f 44/74/41 42/70/39 41/75/42
f 44/76/28 26/51/28 42/72/28
f 45/77/24 43/73/24 25/46/24
f 46/78/43 44/79/41 43/80/44
f 46/81/28 26/51/28 44/76/28
f 27/45/24 45/77/24 25/46/24
f 28/48/26 46/78/43 45/82/45
f 28/52/28 26/51/28 46/81/28
f 5/10/6 6/4/2 3/2/3
f 7/14/8 8/9/5 5/10/6
f 9/18/10 10/13/7 7/14/8
f 11/22/12 12/17/9 9/18/10
f 13/26/14 14/21/11 11/22/12
f 15/30/16 16/25/13 13/26/14
f 17/34/18 18/29/15 15/30/16
f 19/38/20 20/33/17 17/34/18
f 21/83/22 22/37/19 19/38/20
f 23/40/21 24/41/21 21/43/22
f 29/55/30 30/47/25 27/49/27
f 31/53/32 32/54/29 29/55/30
f 33/56/34 34/57/31 31/53/32
f 35/63/36 36/59/33 33/56/34
f 37/67/38 38/62/35 35/63/36
f 39/71/40 40/66/37 37/67/38
f 41/75/42 42/70/39 39/71/40
f 43/84/44 44/74/41 41/75/42
f 45/82/45 46/78/43 43/80/44
f 27/49/27 28/48/26 45/82/45
